<?xml version="1.0" encoding="UTF-8" standalone="no"?>
<svg
   xmlns:dc="http://purl.org/dc/elements/1.1/"
   xmlns:cc="http://creativecommons.org/ns#"
   xmlns:rdf="http://www.w3.org/1999/02/22-rdf-syntax-ns#"
   xmlns:svg="http://www.w3.org/2000/svg"
   xmlns="http://www.w3.org/2000/svg"
   viewBox="0 0 436.93332 433.80267"
   height="433.80267"
   width="436.93332"
   xml:space="preserve"
   id="svg2"
   version="1.1"><metadata
     id="metadata8"><rdf:RDF><cc:Work
         rdf:about=""><dc:format>image/svg+xml</dc:format><dc:type
           rdf:resource="http://purl.org/dc/dcmitype/StillImage" /></cc:Work></rdf:RDF></metadata><defs
     id="defs6"><clipPath
       id="clipPath22"
       clipPathUnits="userSpaceOnUse"><path
         id="path20"
         d="M 0,325.352 H 327.7 V 0 H 0 Z" /></clipPath></defs><g
     transform="matrix(1.3333333,0,0,-1.3333333,0,433.80267)"
     id="g10"><g
       transform="translate(56.9599,245.2423)"
       id="g12"><path
         id="path14"
         style="fill:#59c7c0;fill-opacity:1;fill-rule:nonzero;stroke:none"
         d="M 0,0 V -70.14 H 82.46 V -92.26 H 0 V -178.5 H -27.16 V 22.12 H 96.46 L 96.46,0 Z" /></g><g
       id="g16"><g
         clip-path="url(#clipPath22)"
         id="g18"><g
           transform="translate(205.2196,170.2023)"
           id="g24"><path
             id="path26"
             style="fill:#59c7c0;fill-opacity:1;fill-rule:nonzero;stroke:none"
             d="m 0,0 c 7.84,0 14.77,0.956 20.791,2.87 6.02,1.912 11.059,4.62 15.119,8.12 4.061,3.5 7.115,7.676 9.17,12.53 2.053,4.852 3.08,10.22 3.08,16.1 0,11.946 -3.92,20.952 -11.76,27.02 -7.839,6.066 -19.599,9.1 -35.279,9.1 H -28.561 V 0 Z M 92.68,-103.46 H 68.6 c -4.948,0 -8.588,1.912 -10.92,5.74 L 5.6,-26.04 c -1.588,2.24 -3.289,3.85 -5.11,4.83 -1.82,0.98 -4.644,1.47 -8.47,1.47 h -20.581 v -83.72 H -55.58 V 97.16 H 1.121 c 12.692,0 23.66,-1.284 32.899,-3.85 9.24,-2.568 16.871,-6.278 22.89,-11.13 6.02,-4.854 10.477,-10.71 13.371,-17.57 2.891,-6.86 4.34,-14.538 4.34,-23.03 C 74.621,34.486 73.5,27.86 71.26,21.7 69.02,15.54 65.775,10.01 61.531,5.11 57.281,0.21 52.102,-3.968 45.99,-7.42 c -6.113,-3.454 -13.045,-6.068 -20.789,-7.84 3.451,-1.96 6.44,-4.808 8.959,-8.54 z" /></g></g></g></g></svg>